<svg width="36.000000" height="36.000000" viewBox="0 0 36 36" fill="none" xmlns="http://www.w3.org/2000/svg" xmlns:xlink="http://www.w3.org/1999/xlink">
	<desc>
			Created with Pixso.
	</desc>
	<defs>
		<clipPath id="clip79_20">
			<rect id="image (12) 1" width="36.000000" height="36.000000" fill="white" fill-opacity="0"/>
		</clipPath>
	</defs>
	<rect id="image (12) 1" width="36.000000" height="36.000000" fill="#FFFFFF" fill-opacity="0"/>
	<g clip-path="url(#clip79_20)">
		<path id="Vector" d="M14.4 36C14.09 35.99 13.8 35.93 13.52 35.82C13.24 35.7 12.99 35.53 12.78 35.32L8.58 31.14C8.55 31.1 8.52 31.06 8.5 31.02C8.48 30.97 8.47 30.93 8.47 30.88C8.47 30.83 8.48 30.79 8.5 30.74C8.52 30.7 8.55 30.66 8.58 30.63C9 30.2 9.24 29.62 9.24 29.02C9.24 28.42 9 27.84 8.58 27.42C8.37 27.21 8.12 27.04 7.84 26.93C7.57 26.81 7.27 26.75 6.98 26.75C6.37 26.75 5.8 26.99 5.37 27.42C5.34 27.45 5.3 27.48 5.25 27.5C5.21 27.51 5.16 27.52 5.12 27.52C5.07 27.52 5.02 27.51 4.98 27.5C4.94 27.48 4.9 27.45 4.86 27.42L0.67 23.22C0.24 22.78 0 22.2 0 21.59C0 20.97 0.24 20.39 0.67 19.96L19.96 0.67C20.39 0.24 20.98 0 21.59 0C22.2 0 22.79 0.24 23.22 0.67L27.41 4.85C27.44 4.89 27.47 4.93 27.49 4.97C27.51 5.02 27.52 5.06 27.52 5.11C27.52 5.16 27.51 5.2 27.49 5.25C27.47 5.29 27.44 5.33 27.41 5.36C27 5.79 26.77 6.37 26.78 6.96C26.78 7.55 27.02 8.12 27.44 8.54C27.86 8.96 28.43 9.2 29.02 9.21C29.62 9.21 30.19 8.99 30.62 8.57C30.69 8.51 30.78 8.47 30.87 8.47C30.97 8.47 31.06 8.51 31.13 8.57L35.32 12.78C35.75 13.21 35.99 13.79 35.99 14.4C35.99 15.02 35.75 15.6 35.32 16.03L16.03 35.32C15.82 35.54 15.56 35.71 15.28 35.82C15 35.94 14.7 36 14.4 36ZM9.33 30.86L13.29 34.82C13.58 35.11 13.98 35.27 14.4 35.28C14.6 35.28 14.81 35.23 15 35.15C15.19 35.08 15.37 34.96 15.51 34.81L34.81 15.52C35.11 15.22 35.28 14.82 35.28 14.4C35.28 13.98 35.11 13.58 34.81 13.28L30.85 9.33C30.28 9.78 29.56 10 28.83 9.96C28.1 9.92 27.41 9.61 26.89 9.09C26.38 8.57 26.07 7.88 26.02 7.16C25.98 6.43 26.2 5.71 26.65 5.13L22.69 1.17C22.4 0.87 21.99 0.71 21.57 0.71C21.15 0.71 20.75 0.87 20.45 1.17L1.18 20.47C0.88 20.77 0.72 21.17 0.72 21.59C0.72 22.01 0.88 22.41 1.18 22.71L5.14 26.67C5.71 26.22 6.43 25.99 7.16 26.04C7.89 26.08 8.58 26.39 9.1 26.91C9.62 27.42 9.93 28.11 9.97 28.84C10.01 29.57 9.79 30.29 9.34 30.87L9.33 30.86Z" fill="#969696" fill-opacity="1.000000" fill-rule="nonzero"/>
		<path id="Vector" d="M17.01 28.69C16.92 28.69 16.83 28.65 16.76 28.58L7.41 19.23C7.37 19.2 7.35 19.16 7.33 19.11C7.31 19.07 7.3 19.02 7.3 18.98C7.3 18.93 7.31 18.88 7.33 18.84C7.34 18.79 7.37 18.75 7.4 18.72C7.44 18.69 7.48 18.66 7.52 18.64C7.56 18.62 7.61 18.61 7.66 18.61C7.71 18.61 7.75 18.62 7.8 18.64C7.84 18.66 7.88 18.68 7.91 18.71L17.28 28.08C17.33 28.13 17.36 28.19 17.37 28.26C17.39 28.33 17.38 28.4 17.35 28.47C17.33 28.53 17.28 28.59 17.22 28.63C17.16 28.67 17.09 28.69 17.02 28.69L17.01 28.69ZM20.73 23.59C20.65 23.59 20.56 23.56 20.49 23.5C20.43 23.44 20.39 23.36 20.37 23.28L18.41 9.3C18.4 9.21 18.42 9.11 18.48 9.03C18.54 8.96 18.63 8.9 18.72 8.89C18.82 8.88 18.91 8.9 18.99 8.96C19.07 9.02 19.12 9.11 19.13 9.2L21.09 23.18C21.11 23.27 21.08 23.37 21.03 23.44C20.97 23.52 20.88 23.57 20.79 23.58L20.73 23.59ZM24.35 19.9C23.95 19.9 23.56 19.8 23.2 19.61C22.85 19.42 22.55 19.14 22.32 18.81C22.1 18.47 21.96 18.09 21.93 17.69C21.89 17.29 21.95 16.88 22.1 16.51C22.26 16.14 22.5 15.81 22.81 15.56C23.12 15.3 23.49 15.13 23.89 15.05C24.28 14.97 24.69 14.99 25.08 15.11C25.46 15.23 25.81 15.44 26.1 15.72C26.44 16.06 26.67 16.5 26.76 16.97C26.86 17.45 26.81 17.94 26.62 18.39C26.44 18.84 26.13 19.22 25.72 19.49C25.32 19.76 24.85 19.9 24.36 19.9L24.35 19.9ZM24.35 15.72C23.96 15.72 23.57 15.86 23.26 16.12C22.95 16.37 22.74 16.72 22.66 17.11C22.58 17.51 22.65 17.91 22.83 18.26C23.02 18.62 23.33 18.89 23.7 19.04C24.06 19.2 24.48 19.22 24.86 19.1C25.24 18.99 25.57 18.74 25.79 18.41C26.01 18.08 26.11 17.68 26.07 17.28C26.03 16.88 25.86 16.51 25.58 16.23C25.42 16.07 25.23 15.94 25.02 15.85C24.81 15.77 24.58 15.72 24.35 15.72ZM15.15 17.47C14.74 17.47 14.35 17.38 13.99 17.19C13.64 17 13.33 16.72 13.11 16.39C12.89 16.05 12.75 15.67 12.71 15.27C12.67 14.87 12.73 14.46 12.88 14.09C13.04 13.72 13.28 13.39 13.59 13.13C13.9 12.88 14.27 12.7 14.67 12.63C15.06 12.55 15.47 12.57 15.86 12.68C16.24 12.8 16.59 13.01 16.88 13.3C17.22 13.64 17.45 14.08 17.55 14.55C17.64 15.03 17.59 15.52 17.41 15.96C17.22 16.41 16.91 16.79 16.51 17.06C16.1 17.33 15.63 17.47 15.15 17.47ZM15.15 13.3C14.75 13.3 14.36 13.44 14.05 13.7C13.74 13.95 13.53 14.31 13.46 14.7C13.38 15.09 13.44 15.5 13.63 15.85C13.82 16.2 14.13 16.47 14.5 16.63C14.87 16.78 15.28 16.8 15.66 16.68C16.04 16.56 16.37 16.32 16.59 15.99C16.81 15.65 16.91 15.26 16.87 14.86C16.83 14.46 16.66 14.09 16.37 13.81C16.21 13.64 16.02 13.52 15.81 13.43C15.6 13.34 15.37 13.3 15.15 13.3Z" fill="#969696" fill-opacity="1.000000" fill-rule="nonzero"/>
	</g>
</svg>
