<svg width="84.000000" height="23.000000" viewBox="0 0 84 23" fill="none" xmlns="http://www.w3.org/2000/svg" xmlns:xlink="http://www.w3.org/1999/xlink">
	<desc>
			Created with Pixso.
	</desc>
	<defs/>
	<path id="Vector" d="M12.47 16.92L8.84 16.92C3.18 16.92 7.29 5 12.06 5L17.79 5C18.71 5 20.33 5.17 21.13 2.92L22.36 -0.59L14.5 -0.59C10.24 -0.59 6.93 0.9 4.53 3.39C0.4 7.66 -1 14.33 -0.01 17.52C0.93 20.46 3.49 22.41 7.51 22.45L10.63 22.48L14.47 22.48L15.42 19.67C16.12 17.68 14.55 16.92 12.47 16.92ZM56.63 11.98L57.82 8.17L45.17 8.17C43.06 8.17 42.12 8.74 41.76 9.94L40.57 13.75L53.22 13.75C55.33 13.75 56.27 13.18 56.63 11.98ZM38.69 18.69L37.5 22.5L50.15 22.5C52.23 22.5 53.2 21.93 53.56 20.73L54.75 16.92L42.1 16.92C40.02 16.92 39.07 17.49 38.69 18.69ZM59.58 3.25L60.77 -0.56L48.12 -0.56C46.01 -0.56 45.07 0.01 44.71 1.21L43.52 5.02L56.17 5.02C56.17 5.02 59.2 4.45 59.58 3.25ZM40.47 4.02C39.94 0.47 38.03 -0.56 33.39 -0.56L24.92 -0.56L19.99 13.75L23.11 13.75C24.97 13.75 25.91 13.78 26.91 11.14L28.96 5L32.11 5C34.79 5 34.19 8.33 32.83 11.57C31.62 14.42 29.52 16.94 26.98 16.94L21.73 16.94C19.63 16.94 18.66 17.52 18.27 18.71L16.97 22.53L20.81 22.53L24.58 22.5C27.92 22.48 30.66 22.24 33.85 19.39C37.23 16.34 41.15 8.53 40.47 4.02ZM83 -0.59L75.67 -0.59L68.77 6.68C67.98 7.52 67.15 8.36 66.35 9.34L66.28 9.34L69.72 -0.59L63.74 -0.59L55.69 22.5L61.66 22.5L64.23 15.24L66.89 13.01L68.99 19.58C69.64 21.62 70.32 22.5 71.77 22.5L76.34 22.5L71.65 9.6L83 -0.59Z" fill="#00B33C" fill-opacity="1.000000" fill-rule="evenodd"/>
</svg>
