<svg width="27.000000" height="27.000000" viewBox="0 0 27 27" fill="none" xmlns="http://www.w3.org/2000/svg" xmlns:xlink="http://www.w3.org/1999/xlink">
	<desc>
			Created with Pixso.
	</desc>
	<defs>
		<clipPath id="clip114_130">
			<rect id="image (15) 1" width="27.000000" height="27.000000" fill="white" fill-opacity="0"/>
		</clipPath>
	</defs>
	<rect id="image (15) 1" width="27.000000" height="27.000000" fill="#FFFFFF" fill-opacity="0"/>
	<g clip-path="url(#clip114_130)">
		<path id="Vector" d="M13.5 0.84C10.99 0.84 8.54 1.58 6.46 2.97C4.38 4.36 2.76 6.34 1.8 8.65C0.84 10.96 0.59 13.51 1.08 15.96C1.57 18.42 2.78 20.67 4.55 22.44C6.32 24.21 8.57 25.42 11.03 25.91C13.48 26.4 16.03 26.15 18.34 25.19C20.65 24.23 22.63 22.61 24.02 20.53C25.41 18.45 26.15 16 26.15 13.5C26.15 10.14 24.82 6.92 22.44 4.55C20.07 2.17 16.85 0.84 13.5 0.84ZM13.5 25.31C11.16 25.31 8.87 24.61 6.93 23.32C4.99 22.02 3.48 20.17 2.58 18.02C1.69 15.86 1.45 13.48 1.91 11.19C2.37 8.9 3.49 6.79 5.14 5.14C6.79 3.49 8.9 2.37 11.19 1.91C13.48 1.45 15.86 1.69 18.02 2.58C20.17 3.48 22.02 4.99 23.32 6.93C24.61 8.87 25.31 11.16 25.31 13.5C25.31 16.63 24.06 19.63 21.85 21.85C19.63 24.06 16.63 25.31 13.5 25.31Z" fill="#969696" fill-opacity="1.000000" fill-rule="nonzero"/>
		<path id="Vector" d="M13.92 16.46L13.92 13.87C14.77 13.77 15.55 13.34 16.1 12.68C16.64 12.02 16.92 11.17 16.86 10.31C16.81 9.46 16.43 8.65 15.81 8.07C15.18 7.48 14.35 7.15 13.5 7.15C12.64 7.15 11.81 7.48 11.18 8.07C10.56 8.65 10.18 9.46 10.13 10.31C10.07 11.17 10.35 12.02 10.9 12.68C11.44 13.34 12.22 13.77 13.07 13.87L13.07 16.46C10.96 16.52 8.85 17.05 8.85 18.14C8.85 19.24 11.26 19.83 13.5 19.83C15.73 19.83 18.14 19.3 18.14 18.14C18.14 16.99 16.03 16.52 13.92 16.46ZM10.96 10.55C10.96 10.05 11.11 9.56 11.39 9.14C11.67 8.73 12.06 8.4 12.53 8.21C12.99 8.02 13.5 7.97 13.99 8.07C14.48 8.17 14.93 8.41 15.28 8.76C15.64 9.11 15.88 9.57 15.98 10.06C16.08 10.55 16.03 11.06 15.83 11.52C15.64 11.98 15.32 12.38 14.9 12.66C14.49 12.93 14 13.08 13.5 13.08C13.16 13.08 12.83 13.02 12.52 12.89C12.22 12.76 11.94 12.57 11.7 12.34C11.47 12.1 11.28 11.82 11.15 11.51C11.03 11.21 10.96 10.87 10.96 10.54L10.96 10.55ZM13.5 18.99C11.02 18.99 9.77 18.37 9.7 18.14C9.76 17.92 10.89 17.37 13.07 17.3L13.07 18.14C13.07 18.26 13.12 18.36 13.2 18.44C13.28 18.52 13.38 18.57 13.5 18.57C13.61 18.57 13.71 18.52 13.79 18.44C13.87 18.36 13.92 18.26 13.92 18.14L13.92 17.3C16.08 17.36 17.21 17.9 17.29 18.14C17.21 18.37 15.94 18.98 13.5 18.98L13.5 18.99Z" fill="#969696" fill-opacity="1.000000" fill-rule="nonzero"/>
	</g>
</svg>
