<svg width="30.000000" height="30.000000" viewBox="0 0 30 30" fill="none" xmlns="http://www.w3.org/2000/svg" xmlns:xlink="http://www.w3.org/1999/xlink">
	<desc>
			Created with Pixso.
	</desc>
	<defs/>
	<rect id="instagram" width="30.000000" height="30.000000" fill="#FFFFFF" fill-opacity="0"/>
	<path id="instagram" d="M15 0C6.71 0 0 6.71 0 15C0 23.28 6.71 30 15 30C23.28 30 30 23.28 30 15C30 6.71 23.28 0 15 0ZM20.06 7.59C19.59 7.4 19.03 7.31 18.18 7.21L11.81 7.21C10.96 7.21 10.4 7.4 9.93 7.59C9.46 7.78 9 8.06 8.53 8.53C8.06 9 7.87 9.37 7.59 9.93C7.4 10.4 7.31 10.96 7.21 11.81L7.21 18.18C7.21 19.03 7.4 19.59 7.59 20.06C7.78 20.53 8.06 21 8.53 21.46C9 21.93 9.37 22.12 9.93 22.4C10.4 22.59 10.96 22.68 11.81 22.78L18.18 22.78C19.03 22.78 19.59 22.59 20.06 22.4C20.53 22.21 21 21.93 21.46 21.46C21.93 21 22.12 20.62 22.4 20.06C22.59 19.59 22.68 19.03 22.78 18.18L22.78 11.81C22.78 10.96 22.59 10.4 22.4 9.93C22.21 9.46 21.93 9 21.46 8.53C21 8.06 20.62 7.87 20.06 7.59ZM19.45 8.85C19.18 8.75 18.82 8.62 18.18 8.62L11.81 8.62C11.06 8.71 10.68 8.81 10.4 8.9C10.03 9 9.75 9.18 9.46 9.46C9.24 9.69 9.14 9.91 9.01 10.18C8.98 10.25 8.94 10.32 8.9 10.4C8.89 10.44 8.87 10.49 8.85 10.54C8.75 10.81 8.62 11.17 8.62 11.81L8.62 18.18C8.71 18.93 8.81 19.31 8.9 19.59C9 19.96 9.18 20.25 9.46 20.53C9.69 20.75 9.91 20.85 10.18 20.98C10.25 21.01 10.32 21.05 10.4 21.09C10.44 21.1 10.49 21.12 10.54 21.14C10.81 21.24 11.17 21.37 11.81 21.37L18.18 21.37C18.93 21.28 19.31 21.18 19.59 21.09C19.96 21 20.25 20.81 20.53 20.53C20.75 20.3 20.85 20.08 20.98 19.81C21.01 19.74 21.05 19.67 21.09 19.59C21.1 19.55 21.12 19.5 21.14 19.45C21.24 19.18 21.37 18.82 21.37 18.18L21.37 11.81C21.28 11.06 21.18 10.68 21.09 10.4C21 10.03 20.81 9.75 20.53 9.46C20.3 9.24 20.08 9.14 19.81 9.01C19.74 8.98 19.67 8.94 19.59 8.9C19.55 8.89 19.5 8.87 19.45 8.85ZM20.06 10.87C20.06 11.39 19.64 11.81 19.12 11.81C18.6 11.81 18.18 11.39 18.18 10.87C18.18 10.35 18.6 9.93 19.12 9.93C19.64 9.93 20.06 10.35 20.06 10.87ZM15 10.96C12.75 10.96 10.96 12.75 10.96 15C10.96 17.25 12.75 19.03 15 19.03C17.25 19.03 19.03 17.25 19.03 15C19.03 12.75 17.25 10.96 15 10.96ZM15 17.62C13.59 17.62 12.37 16.5 12.37 15C12.37 13.59 13.5 12.37 15 12.37C16.4 12.37 17.62 13.5 17.62 15C17.62 16.4 16.4 17.62 15 17.62Z" fill="#333333" fill-opacity="1.000000" fill-rule="evenodd"/>
</svg>
