<svg width="441.000000" height="146.000000" viewBox="0 0 441 146" fill="none" xmlns="http://www.w3.org/2000/svg" xmlns:xlink="http://www.w3.org/1999/xlink">
	<desc>
			Created with Pixso.
	</desc>
	<defs/>
	<path id="path18" d="M316.56 60.63C315.03 61.75 313.75 62.58 312.71 63.11C312.19 63.37 311.56 63.7 310.82 64.1C310.07 64.5 309.28 64.93 308.43 65.39C307.59 65.85 306.76 66.32 305.95 66.78C305.14 67.24 304.41 67.64 303.76 67.97C303.05 68.37 302.16 68.96 301.09 69.76C300.02 70.55 298.93 71.28 297.83 71.94C296.73 72.6 295.66 73.08 294.62 73.38C294.18 73.51 293.76 73.55 293.39 73.51C292.58 73.43 292.06 72.6 292.3 71.81C292.59 70.87 293.17 69.8 294.04 68.62C295.27 66.93 296.86 65.16 298.8 63.31C300.75 61.45 302.92 59.63 305.32 57.85C307.72 56.06 310.12 54.46 312.52 53.04C314.92 51.61 317.2 50.47 319.38 49.61C321.55 48.75 323.35 48.32 324.77 48.32C325.54 48.26 326.24 48.22 326.89 48.22C326.91 48.22 326.92 48.23 326.94 48.23C327.45 48.29 327.93 48.39 328.37 48.52C328.75 48.63 328.97 48.85 329.03 49.18C329.06 49.31 329.02 49.45 328.93 49.54C328.04 50.51 326.93 51.64 325.6 52.94C324.21 54.29 322.73 55.63 321.18 56.96C319.62 58.28 318.08 59.5 316.56 60.63ZM230.79 60.77C229.71 60.24 229.21 59.41 229.31 58.29C229.4 57.14 229.86 55.85 230.67 54.42C231.48 53 232.57 51.53 233.93 50.01C235.29 48.49 236.68 47.15 238.11 45.99C239.54 44.83 240.91 43.91 242.24 43.21C243.57 42.52 244.59 42.27 245.31 42.47C246.09 42.4 246.54 42.55 246.67 42.91C246.8 43.28 246.8 43.72 246.67 44.25C246.54 44.78 246.33 45.31 246.04 45.84C245.75 46.37 245.5 46.77 245.31 47.03C244.98 47.56 244.46 48.36 243.75 49.41C243.04 50.47 242.24 51.56 241.37 52.69C240.49 53.81 239.63 54.89 238.79 55.91C237.95 56.94 237.27 57.68 236.75 58.15C232.83 61.48 230.79 60.77 230.79 60.77ZM219.48 83.65C218.54 84.77 217.34 86.08 215.88 87.57C214.43 89.06 212.9 90.58 211.31 92.13C209.72 93.69 208.54 95.06 207.76 96.25C204.26 101.48 200.24 106.69 195.7 111.88C191.16 117.08 186.5 121.89 181.7 126.32C180.33 127.58 179.15 128.72 178.15 129.74C177.14 130.77 176.2 131.73 175.32 132.62C174.45 133.52 173.56 134.37 172.65 135.2C171.77 136 170.74 136.79 169.55 137.56C169.48 137.61 169.39 137.63 169.31 137.62C168.6 137.53 168.07 137.18 167.74 136.59C167.38 135.96 167.2 135.22 167.2 134.36C167.2 133.5 167.33 132.65 167.59 131.83C167.85 131.01 168.14 130.34 168.46 129.81C168.46 129.8 168.47 129.79 168.48 129.78C169.9 127.8 171.21 125.92 172.41 124.14C173.61 122.35 174.86 120.6 176.15 118.88C177.45 117.16 178.84 115.42 180.33 113.67C181.83 111.91 183.54 110.08 185.49 108.16C188.8 104.92 192.2 101.74 195.7 98.63C199.66 95.19 203.69 92.02 207.81 89.11C211.84 86.26 215.87 83.77 219.93 81.62C220.15 81.5 220.43 81.65 220.43 81.9C220.44 82.3 220.13 82.88 219.48 83.65ZM439.83 63.01C439.5 62.94 438.81 63.24 437.74 63.9C437.26 64.2 436.71 64.58 436.11 65.04C436.11 65.04 423.51 73.03 417.4 73.43L417.07 73.43C416.74 73.43 416.31 73.38 415.76 73.28C415.35 73.21 414.91 73.02 414.42 72.72C414.21 72.59 414.04 72.28 414.08 72.02C414.62 68.41 423.28 62.24 423.28 62.24C423.29 62.22 423.31 62.21 423.32 62.19C423.45 62.07 424.01 61.62 424.99 60.83C426.07 59.97 427.2 58.96 428.4 57.8C429.6 56.64 430.67 55.45 431.61 54.23C432.55 53 432.92 52.03 432.73 51.3C432.67 50.97 432.45 50.64 432.1 50.31C431.74 49.98 431.33 49.7 430.88 49.46C430.43 49.23 429.97 49.03 429.52 48.87C429.07 48.7 428.71 48.62 428.45 48.62C427.35 48.62 426.27 49.07 425.24 49.96L419.7 54.87L408.31 63.15C388.54 74.63 387.89 70.25 387.89 70.25C387.76 69.52 387.86 68.65 388.18 67.66C388.5 66.66 388.89 65.65 389.35 64.62L391.68 59.04C392.33 57.95 392.93 56.88 393.48 55.85C394.03 54.82 394.5 53.88 394.89 53.01C395.28 52.15 395.48 51.49 395.48 51.02C395.48 50.49 395.43 50.11 395.33 49.88C395.23 49.64 395.12 49.46 394.99 49.33C394.86 49.19 394.77 49.05 394.65 48.98C393.47 48.33 389.54 49.23 389.54 49.23C388.7 49.36 388.08 49.48 387.69 49.58C387.31 49.68 386.92 49.83 386.53 50.02C386.14 50.22 385.68 50.52 385.17 50.92C384.65 51.32 383.87 51.88 382.83 52.62C382.38 52.95 381.86 53.28 381.28 53.61C380.69 53.94 380.12 54.24 379.57 54.51C379.02 54.77 378.52 55.01 378.07 55.2L378.05 55.21C377.65 55.39 377.27 54.94 377.49 54.55C377.63 54.31 377.79 54.1 377.97 53.91C378.36 53.51 378.73 53.13 379.09 52.76C379.44 52.4 379.77 52.04 380.06 51.67C380.35 51.3 380.5 50.82 380.5 50.22C380.5 49.69 380.29 49.18 379.86 48.68C379.44 48.18 378.94 47.73 378.36 47.34C377.77 46.94 377.16 46.62 376.51 46.39C375.86 46.16 375.28 46.04 374.76 46.04C374.24 46.04 373.69 46.11 373.1 46.24C372.52 46.37 371.94 46.52 371.35 46.68C370.77 46.85 370.25 47.03 369.8 47.23L365.18 49.51C358.64 53.38 332.44 69.38 326.08 70.99C320.58 72.39 319.86 70.73 320.02 69.42C320.1 68.75 320.43 68.14 320.91 67.68C322.75 65.89 324.31 64.4 325.6 63.26C327.06 61.97 328.37 60.71 329.54 59.49C330.71 58.26 331.83 56.89 332.9 55.37C333.76 54.14 334.73 52.57 335.83 50.66C336.27 49.89 335.95 48.9 335.15 48.53C333.4 47.73 332 47.08 330.95 46.59C329.62 45.96 328.5 45.49 327.6 45.2C326.69 44.9 325.76 44.72 324.82 44.65C323.88 44.58 322.54 44.55 320.79 44.55C318.71 44.55 316.52 44.8 314.22 45.29C311.92 45.79 309.6 46.54 307.27 47.53C304.93 48.52 302.61 49.76 300.31 51.25C298.01 52.74 295.85 54.44 293.84 56.36C293.13 57.09 292.14 58.06 290.88 59.29C289.64 60.48 288.44 61.78 287.27 63.16C286.91 63.31 286.45 63.55 285.88 63.9C285.4 64.2 284.86 64.58 284.25 65.04L284.25 65.04C284.25 65.04 271.66 73.03 265.54 73.43L265.21 73.43C264.89 73.43 264.45 73.38 263.9 73.28C263.5 73.21 263.06 73.02 262.57 72.72C262.35 72.59 262.18 72.28 262.22 72.02C262.76 68.41 271.42 62.24 271.42 62.24C271.44 62.22 271.45 62.21 271.46 62.19C271.6 62.07 272.16 61.62 273.14 60.83C274.21 59.97 275.35 58.96 276.55 57.8C277.75 56.64 278.82 55.45 279.76 54.23C280.7 53 281.07 52.03 280.88 51.3C280.81 50.97 280.6 50.64 280.24 50.31C279.89 49.98 279.48 49.7 279.03 49.46C278.57 49.23 278.12 49.03 277.67 48.87C277.21 48.7 276.85 48.62 276.6 48.62C275.49 48.62 274.42 49.07 273.39 49.96L272.24 50.97L272.24 50.98L267.84 54.87L265.96 56.68L261.68 60.57C260.73 61.4 259.81 62.23 258.93 63.06C258.93 63.06 258.93 63.06 258.93 63.06C258.74 63.06 253.57 66 252.8 66.43C252.02 66.86 251.1 67.36 250.03 67.92C248.96 68.48 247.82 69.06 246.62 69.66C245.42 70.25 244.34 70.75 243.36 71.15C239.1 72.72 236.94 71.74 236.94 71.74C236.16 71.68 235.92 71.33 236.21 70.7C236.5 70.08 236.96 69.42 237.59 68.71L239.76 65.94C240.8 64.32 241.98 62.48 243.31 60.43C244.64 58.38 246 56.41 247.4 54.52C248.32 53.28 249.16 52.29 249.93 51.54C250.86 50.64 251.7 49.63 252.45 48.56C252.98 47.81 253.51 47.07 254.06 46.34C255.1 44.95 256.04 43.56 256.88 42.17C257.72 40.78 258.38 39.41 259.02 38.15C260.52 35.22 259.51 34.03 259.51 34.03C259.38 33.83 259.26 33.65 259.17 33.49C259.07 33.32 258.91 33.19 258.68 33.09C258.47 33 258.18 33.03 257.83 33.2C257.79 33.23 257.75 33.27 257.71 33.3C256.95 34.21 256.2 35.11 255.47 36.02C254.73 36.94 254.04 37.77 253.43 38.5C252.81 39.23 252.25 39.84 251.73 40.33C251.21 40.83 250.82 41.08 250.56 41.08C250.11 41.08 249.7 40.98 249.34 40.78C248.99 40.58 248.6 40.37 248.18 40.14C247.75 39.9 247.28 39.71 246.77 39.54C246.25 39.37 245.57 39.33 244.72 39.39C243.56 39.46 242.18 39.74 240.59 40.23C239 40.73 237.36 41.43 235.68 42.32C233.99 43.21 232.34 44.27 230.72 45.49C229.1 46.72 227.65 48.07 226.39 49.56C225.12 51.05 224.12 52.66 223.37 54.37C222.63 56.1 222.32 57.91 222.45 59.83C222.51 60.96 222.87 61.87 223.52 62.56C224.17 63.26 224.9 63.8 225.71 64.2C226.52 64.6 227.36 64.86 228.24 64.99C228.24 64.99 230.8 65.91 235.24 61.43C235.4 61.27 235.68 61.38 235.76 61.6C235.77 61.64 235.78 61.68 235.8 61.73C236 62.43 235.78 63.18 235.29 63.71C234.93 64.1 234.46 64.65 233.88 65.34C233.13 66.23 232.34 67.16 231.5 68.12C230.65 69.08 229.87 69.97 229.16 70.8C229.15 70.81 229.15 70.81 229.14 70.82C228.13 71.72 227.13 72.61 226.12 73.51L219.35 78.08C219.34 78.09 219.33 78.1 219.32 78.1C218.55 78.76 217.81 79.35 217.1 79.88C216.39 80.41 215.8 80.8 215.35 81.07C212.69 82.66 209.92 84.41 207.03 86.33C204.15 88.25 201.25 90.26 198.33 92.38C195.41 94.5 192.53 96.71 189.67 99.03C186.82 101.35 184.13 103.73 181.6 106.18C178.68 108.95 175.58 112 172.31 115.31C169.04 118.61 166.12 121.9 163.56 125.18C161 128.45 159.08 131.6 157.82 134.61C156.56 137.59 156.5 140.1 157.64 142.14C157.67 142.17 157.7 142.21 157.72 142.24C158.81 143.15 159.74 144.03 160.54 144.88C161.35 145.74 162.24 146.1 163.21 145.97C164.51 145.77 165.87 145.27 167.3 144.48C168.73 143.69 170.11 142.74 171.43 141.65C172.76 140.56 174.04 139.44 175.28 138.28C176.51 137.12 177.58 136.11 178.49 135.25C184.19 129.83 189.4 124.42 194.1 119.03C198.8 113.63 203.29 108.26 207.57 102.9C210.29 99.46 213 96.25 215.69 93.28C218.38 90.3 221.08 87.23 223.81 84.05C223.81 84.05 223.81 84.04 223.82 84.04C223.82 84.04 227.9 79.67 236.46 76.21C237.59 75.75 238.84 75.25 240.3 74.92C241.76 74.59 243.31 74.17 244.97 73.68C246.62 73.18 248.34 72.52 250.12 71.69L253.65 69.97C253.28 71.1 253.21 72.32 253.45 73.63C253.58 74.36 253.9 74.97 254.42 75.46C254.94 75.96 255.52 76.36 256.17 76.65C256.82 76.95 257.48 77.16 258.16 77.3C258.84 77.43 259.44 77.5 259.96 77.5C260.61 77.5 261.39 77.38 262.3 77.15C263.2 76.92 264.15 76.6 265.12 76.21C265.12 76.21 277.95 70.34 284.92 66.5C284.65 66.86 284.37 67.21 284.17 67.57C283.35 69.03 283.01 70.32 283.15 71.44C283.4 73.5 284.28 74.97 285.77 75.86C287.26 76.75 288.92 77.2 290.73 77.2C291.77 77.2 292.97 76.95 294.33 76.46C295.69 75.96 297.09 75.31 298.51 74.52C299.94 73.73 301.38 72.9 302.84 72.04C304.3 71.18 305.65 70.35 306.88 69.56C308.11 68.76 309.18 68.12 310.09 67.62C310.99 67.13 311.64 66.88 312.03 66.88C312.03 66.88 313.37 66.47 313.59 67.37C313.67 67.95 313.71 68.52 313.72 69.08C313.73 70.36 314.01 71.63 314.69 72.7C315.22 73.55 316.01 74.38 317.19 74.77C317.96 75.03 318.73 75.16 319.47 75.26C320.22 75.36 320.75 75.41 321.08 75.41C322.76 75.41 324.55 75.03 326.43 74.27L334.49 70.26C334.5 70.25 336.46 69.19 336.46 69.19C336.93 68.95 337.35 68.75 337.89 68.47C339.9 67.41 342.66 65.82 346.16 63.7L350.64 61.02L365.23 52.89C366.26 52.56 366.96 52.49 367.32 52.69C367.67 52.89 367.87 53.2 367.9 53.63C367.93 54.06 367.98 54.58 367.71 55.02C366.46 57.04 363.46 59.45 363.24 59.62C363.24 59.63 363.23 59.64 363.22 59.65C361.89 60.97 360.5 62.29 359.05 63.6C357.59 64.93 356 66.23 354.28 67.52C352.77 68.66 351.07 69.68 349.18 70.58C348.41 70.95 347.76 71.56 347.34 72.32L347.33 72.34C347.13 72.73 347 73.18 346.94 73.68C346.9 73.96 346.95 74.25 347.08 74.54C347.28 74.98 347.65 75.31 348.07 75.51C348.93 75.92 350.73 76.56 352.87 76.11C353.25 76.03 353.86 75.86 354.67 75.37C355.48 74.87 356.47 74.27 357.64 73.54C358.81 72.82 360.1 72.01 361.53 71.13C362.96 70.24 364.45 69.4 366 68.61C366.85 68.15 367.93 67.39 369.26 66.34C370.59 65.29 371.99 64.24 373.45 63.18C374.9 62.13 376.31 61.21 377.68 60.42C379.04 59.63 380.21 59.27 381.18 59.34C381.89 59.4 382.18 60.06 382.05 61.31C381.92 62.56 381.68 63.97 381.32 65.55C380.97 67.13 380.64 68.66 380.35 70.14C380.35 70.14 379.86 73.28 381.32 74.58C381.7 74.91 382.07 75.22 382.49 75.42C382.91 75.61 383.3 75.73 383.66 75.76C384.01 75.79 384.29 75.81 384.48 75.81C384.74 75.81 385.33 75.69 386.24 75.47C387.14 75.24 388.2 74.94 389.4 74.58C390.6 74.22 391.93 73.77 393.39 73.25C394.84 72.72 396.29 72.16 397.71 71.57C398.81 71.11 399.72 70.68 400.44 70.29C401.15 69.9 401.8 69.54 402.38 69.21C402.97 68.88 403.55 68.55 404.13 68.22C404.72 67.89 405.4 67.53 406.18 67.14C406.89 66.82 407.57 66.34 408.25 65.88C407.44 66.82 406.59 67.76 406.03 68.76C405.22 70.22 404.97 71.84 405.3 73.63C405.43 74.36 405.75 74.97 406.27 75.46C406.79 75.96 407.37 76.36 408.02 76.65C408.67 76.95 409.34 77.16 410.02 77.3C410.7 77.43 411.3 77.5 411.82 77.5C412.46 77.5 413.24 77.38 414.15 77.15C415.06 76.92 416 76.6 416.97 76.21C416.97 76.21 436.04 67.48 440.31 64.35C440.71 64.06 440.8 63.67 440.8 63.41C440.8 63.14 440.47 63.01 439.83 63.01Z" fill="#FFFFFF" fill-opacity="1.000000" fill-rule="nonzero"/>
	<path id="path22" d="M183.15 71.39C183.08 72.1 183.11 72.85 183.25 73.62C183.38 74.35 183.7 74.96 184.22 75.46C184.74 75.96 185.33 76.35 185.97 76.65C186.62 76.95 187.29 77.16 187.97 77.3C188.65 77.43 189.25 77.49 189.77 77.49C190.42 77.49 191.19 77.38 192.1 77.15C193.01 76.92 193.95 76.6 194.92 76.2C194.92 76.2 214 67.48 218.27 64.35C218.66 64.06 218.75 63.67 218.75 63.4C218.75 63.14 218.43 63.01 217.78 63.01C217.46 62.94 216.76 63.24 215.69 63.9C215.21 64.2 214.66 64.58 214.06 65.03L214.06 65.03C214.06 65.03 201.46 73.03 195.35 73.43L195.02 73.43C194.7 73.43 194.26 73.38 193.71 73.28C193.31 73.2 192.86 73.02 192.37 72.72C192.16 72.59 191.99 72.27 192.03 72.02C192.57 68.41 201.23 62.24 201.23 62.24C201.24 62.22 201.26 62.21 201.27 62.19C201.4 62.07 201.96 61.62 202.95 60.82C204.02 59.96 205.15 58.95 206.35 57.8C207.55 56.64 208.62 55.45 209.56 54.22C210.5 53 210.88 52.03 210.68 51.3C210.62 50.97 210.4 50.64 210.05 50.3C209.69 49.97 209.29 49.69 208.83 49.46C208.38 49.23 207.92 49.03 207.47 48.86C207.02 48.7 206.66 48.62 206.4 48.62C205.3 48.62 204.23 49.06 203.19 49.96L202.04 50.97L197.65 54.87L195.77 56.68L191.49 60.57L188.57 63.27C186.45 65.31 181.35 69.86 180.39 70.5C179.25 71.26 178.05 72.11 176.79 73.03C176.04 73.58 175.36 74.1 174.71 74.6C172.54 76.07 167.9 78.69 166.33 79.58C164.58 80.57 162.86 81.57 161.18 82.56C158.58 84.01 156.12 85.29 153.78 86.38C151.45 87.47 149.15 88.02 146.88 88.02C146.16 88.02 145.69 87.93 145.47 87.77C145.24 87.6 145.1 87.38 145.03 87.12C144.74 86.05 145.42 85.24 145.42 85.24L152.81 76.65C153.64 75.71 154.51 74.84 155.41 74.05C155.42 74.03 155.45 74.01 155.46 73.99C157.27 71.96 159.06 70.16 160.84 68.62C162.62 67.06 164.4 65.59 166.19 64.2C167.97 62.81 169.75 61.42 171.53 60.03C173.32 58.64 175.15 57.06 177.03 55.27C180.21 52.23 183.46 49.13 186.81 45.99C190.14 42.85 193.47 39.82 196.78 36.91C197.75 36.05 198.64 35.24 199.45 34.48C200.26 33.72 201.07 32.96 201.88 32.2C202.69 31.44 203.52 30.68 204.36 29.91C205.2 29.15 206.14 28.38 207.18 27.58C208.09 26.85 209.31 26.39 210.83 26.19C212.35 25.99 213.99 25.89 215.74 25.89C216.78 25.89 218.04 25.86 219.54 25.8C221.03 25.73 222.91 25.66 225.18 25.6C227.45 25.53 230.22 25.52 233.49 25.55C236.77 25.58 240.71 25.73 245.31 25.99C246.15 26.19 246.92 26.14 247.6 25.85C248.28 25.55 248.81 25.18 249.2 24.75C249.59 24.32 249.79 23.91 249.79 23.51C249.79 23.12 249.49 22.89 248.91 22.82C248.33 22.89 247.4 22.99 246.14 23.12C244.87 23.25 243.45 23.4 241.86 23.56C241.35 23.62 240.79 23.64 240.26 23.69C240.28 23.63 240.32 23.58 240.34 23.51C240.53 22.94 240.69 22.49 240.81 22.16C240.83 22.14 240.84 22.12 240.85 22.09C240.92 21.97 241.1 21.81 241.36 21.63C241.66 21.43 241.96 21.2 242.29 20.93C242.61 20.67 242.9 20.39 243.16 20.09C243.24 20 243.31 19.91 243.38 19.81C243.62 19.45 243.45 18.94 243.04 18.78C242.51 18.57 241.91 18.33 241.27 18.06C240.33 17.66 239.6 17.46 239.08 17.46C238.69 17.46 238.24 17.59 237.72 17.86C237.2 18.12 236.73 18.45 236.31 18.85C235.88 19.25 235.54 19.73 235.29 20.29C235.03 20.85 234.96 21.43 235.09 22.02C235.09 22.09 235.17 22.29 235.33 22.62C235.5 22.95 235.71 23.32 235.97 23.71C236.03 23.81 236.14 23.89 236.22 23.98C234.76 24.06 233.33 24.11 231.99 24.11C230.36 24.11 228.78 24.09 227.22 24.06C225.66 24.03 224.22 23.98 222.89 23.91C221.56 23.85 220.43 23.8 219.49 23.76C218.55 23.73 217.91 23.71 217.59 23.71C216.16 23.71 215.13 23.55 214.48 23.22C213.83 22.89 213.7 22.22 214.09 21.23C214.48 20.24 215.19 19.26 216.23 18.3C217.27 17.35 218.34 16.4 219.44 15.48C220.54 14.55 221.53 13.69 222.4 12.89C223.28 12.1 223.72 11.34 223.72 10.61C223.72 9.89 223.65 9.37 223.52 9.08C223.39 8.78 223.23 8.55 223.04 8.38C222.84 8.22 222.61 8.08 222.36 7.98C222.23 7.93 222.1 7.86 221.97 7.77C221.71 7.59 221.38 7.57 221.13 7.74C219.6 8.8 218.11 10.02 216.67 11.41C215.08 12.93 213.46 14.48 211.8 16.07C210.15 17.66 208.48 19.18 206.79 20.64C205.11 22.09 203.32 23.32 201.44 24.31C200.47 24.84 199.34 25.17 198.04 25.3C196.74 25.43 195.46 25.52 194.2 25.55C192.93 25.58 191.72 25.63 190.55 25.7C190.42 25.7 190.3 25.71 190.17 25.72C190.17 25.72 190.17 25.72 190.17 25.72L175.28 26.49C174.83 26.49 173.77 26.52 172.12 26.59C170.46 26.66 168.49 26.76 166.19 26.89C163.88 27.02 161.42 27.17 158.79 27.33C156.17 27.5 153.69 27.68 151.35 27.88C150.05 28.01 148.76 28.1 147.46 28.13C146.16 28.16 145 28.21 143.96 28.28C142.92 28.34 142.1 28.48 141.48 28.67C140.86 28.87 140.62 29.17 140.75 29.57C140.62 29.9 140.77 30.16 141.19 30.36C141.61 30.56 142.18 30.74 142.89 30.91C143.6 31.07 144.4 31.2 145.27 31.3C146.15 31.4 147.01 31.49 147.85 31.55C147.85 31.55 147.85 31.55 147.85 31.55C148.56 31.42 149.54 31.29 150.77 31.15C152 31.02 153.2 30.89 154.37 30.76C155.73 30.63 157.15 30.49 158.65 30.36L163.85 29.61C164.41 29.53 164.96 29.48 165.52 29.45C166.27 29.41 167.35 29.32 168.76 29.17C170.64 28.97 172.7 28.76 174.94 28.52C177.18 28.29 179.4 28.08 181.6 27.88C183.81 27.68 189.51 27.26 190.94 27.26C190.94 27.26 190.94 27.26 190.94 27.26C191.37 27.27 191.82 27.28 192.3 27.28C193.21 27.28 194.07 27.3 194.88 27.33C195.69 27.37 196.35 27.47 196.87 27.63C197.4 27.8 197.53 28.5 197.11 28.86C192.98 32.43 188.85 35.89 184.71 39.24C180.43 42.72 176.16 46.04 171.88 49.22C169.48 50.94 167.14 52.61 164.87 54.23C162.6 55.85 160.33 57.39 158.06 58.84C156.64 59.77 155.06 60.68 153.35 61.57C151.63 62.46 149.88 63.32 148.09 64.15L138.12 68.57C138.12 68.57 138.12 68.57 138.12 68.57C120.46 74.8 124.39 69.15 124.39 69.15L139.63 48.27C141.09 46.12 141.81 44.59 141.81 43.66C141.81 43.26 141.68 42.86 141.42 42.47C141.17 42.07 140.86 41.69 140.5 41.33C140.14 40.96 139.84 40.58 139.58 40.18C139.32 39.79 139.19 39.39 139.19 38.99C139.19 38.14 139.41 37.47 139.87 37.01C140.32 36.55 140.68 36.02 140.94 35.42C141.07 35.09 140.97 34.58 140.65 33.88C140.4 33.36 140.21 32.89 139.91 32.62C136.99 30 127.91 39.57 127.91 39.57C99.7 65.21 94.83 67.28 94.83 67.28C87.79 71.41 83.88 72.42 81.82 72.51C80.41 72.58 79.08 71.67 78.74 70.27C78.74 70.27 78.73 70.26 78.73 70.25C78.57 69.59 78.59 68.76 78.78 67.77C78.98 66.78 79.33 65.57 79.85 64.15C80.37 62.73 81.08 60.96 81.99 58.84C82.51 57.78 83.09 56.68 83.74 55.52C84.39 54.36 85.04 53.23 85.69 52.14C86.33 51.05 87 50.04 87.68 49.12C87.69 49.11 87.69 49.1 87.7 49.09C88.74 47.67 89.98 46.41 91.35 45.33L121.53 21.38C122.58 20.43 123.51 19.36 124.34 18.18C124.55 17.88 124.51 17.47 124.26 17.21C123.74 16.67 123.3 16.19 122.94 15.77C122.49 15.25 121.9 15.18 121.19 15.58C120.15 16.17 118.04 17.53 114.87 19.64C111.69 21.76 107.83 24.34 103.29 27.38C101.74 28.44 100.23 29.53 98.77 30.66C97.31 31.78 95.64 32.94 93.76 34.13L85.93 39.04L77.71 43.96C74.01 46.27 70.37 48.62 66.77 51C63.17 53.38 59.55 55.7 55.92 57.95C54.56 58.81 53.2 59.64 51.84 60.43C50.48 61.22 49.11 62.02 47.75 62.81L40.6 66.58C39.79 66.98 39 67.38 38.22 67.77C36.34 68.7 34.54 69.51 32.82 70.2C31.1 70.9 29.4 71.54 27.72 72.14C24.93 73.07 22.38 73.77 20.08 74.32C12.47 76.15 10.45 75.12 10.45 75.12C9.77 74.85 9.19 74.31 8.7 73.48C8.21 72.65 7.97 71.28 7.97 69.36C7.97 67.84 8.25 66.27 8.8 64.65C8.8 64.65 10.82 58.6 14.54 53.88C14.54 53.88 21.8 45.21 33.84 35.72C36.04 33.99 38.3 32.31 40.6 30.66C42.9 29.01 45.22 27.38 47.56 25.8C51.51 23.22 55.44 20.77 59.33 18.45C63.22 16.14 66.93 14.07 70.46 12.25C74 10.43 77.24 8.94 80.19 7.79C80.19 7.79 92.33 1.97 104.36 2.18C104.36 2.18 114.45 2.57 112.14 9.97C111.75 11.24 111.06 12.33 110.44 13.39C109.82 14.45 109.4 15.31 109.18 15.97C108.97 16.58 109.35 16.88 110.33 16.87C110.49 16.87 110.66 16.81 110.79 16.7C112.38 15.35 113.69 13.82 114.72 12.1C115.79 10.32 116.33 8.63 116.33 7.04C116.33 5.59 115.95 4.4 115.21 3.47C114.46 2.54 113.42 1.83 112.09 1.33C110.76 0.84 109.22 0.49 107.47 0.29C105.72 0.09 103.84 0 101.83 0C98.72 0 95.36 0.23 91.77 0.69C88.17 1.15 84.23 1.98 79.95 3.17C79.3 3.3 78.65 3.47 78 3.67C77.36 3.86 76.69 4.06 75.99 4.25C75.97 4.26 75.95 4.26 75.94 4.27C75.94 4.27 72.05 5.65 72.02 5.66L67.72 7.23C67.7 7.23 60.89 10.17 57.63 12.05C54.35 13.94 51.06 15.77 47.75 17.56C45.81 18.55 43.93 19.7 42.08 21.02C42.07 21.03 42.05 21.04 42.04 21.05C42.04 21.05 14.8 38.86 1.85 61.11C1.85 61.12 0.8 63.84 0.48 65.29C0.16 66.75 0 67.97 0 68.96C0 69.69 0.19 70.72 0.58 72.04C0.97 73.36 1.87 74.75 3.3 76.21C4.86 77.79 6.46 78.77 8.12 79.13C9.77 79.5 11.44 79.68 13.13 79.68C13.13 79.68 20.08 81.42 58.21 60.58L69.1 54.82C70.37 54.13 71.37 53.55 72.12 53.09C72.86 52.62 73.41 52.29 73.77 52.09C73.94 52 74.08 51.92 74.2 51.86C74.46 51.71 74.77 51.65 75.05 51.73C75.35 51.82 75.53 52.04 75.57 52.39C75.63 52.92 75.52 53.63 75.23 54.52C74.94 55.41 74.51 56.42 73.94 57.57C73.92 57.59 73.91 57.61 73.9 57.64L70.72 66.14C70.71 66.17 70.71 66.2 70.7 66.23C70.38 67.53 70.17 68.64 70.07 69.56C69.98 70.49 69.99 71.34 70.12 72.14C70.12 72.14 69.98 76.17 75.47 78.29C75.47 78.29 78.58 79.06 83.01 76.95C83.01 76.95 94.36 73.62 132.33 41.08C133.18 40.35 134 40.15 134.52 40.09C134.52 40.09 135.5 39.94 136.34 40.99C136.63 41.36 136.65 41.88 136.43 42.3C135.57 43.93 133.19 48.32 131.31 50.51C128.98 53.22 126.64 55.81 124.31 58.3C121.97 60.78 119.91 63.21 118.13 65.59C116.52 67.73 115.54 69.93 115.17 72.18C115.17 72.18 114.38 76.97 122.07 76.41C122.85 76.35 123.84 76.31 125.04 76.11C126.24 75.91 127.52 75.61 128.88 75.21C130.24 74.82 131.63 74.36 133.06 73.83L143.91 69.21C145.11 68.71 146.84 67.81 149.11 66.48C150.35 65.75 151.53 65.06 152.67 64.4C153.64 63.83 154.57 63.28 155.42 62.76C155.72 62.58 156.11 62.6 156.32 62.87C156.47 63.04 156.51 63.28 156.46 63.55C156.36 64.05 156.08 64.6 155.63 65.19C155.18 65.79 154.63 66.42 153.98 67.08C153.33 67.74 152.71 68.37 152.13 68.96C150.83 70.22 149.41 71.48 147.85 72.73C146.29 73.99 144.82 75.26 143.42 76.55C142.03 77.84 140.86 79.12 139.92 80.37C138.98 81.63 138.51 82.86 138.51 84.05C138.51 84.77 138.67 85.58 139 86.48C139.32 87.37 139.78 88.2 140.36 88.96C140.95 89.72 141.66 90.35 142.5 90.84C142.5 90.84 149.12 94 164.39 83.6L183.15 71.39Z" fill="#FFFFFF" fill-opacity="1.000000" fill-rule="nonzero"/>
</svg>
