<svg width="30.000000" height="30.000000" viewBox="0 0 30 30" fill="none" xmlns="http://www.w3.org/2000/svg" xmlns:xlink="http://www.w3.org/1999/xlink">
	<desc>
			Created with Pixso.
	</desc>
	<defs/>
	<rect id="telegram" width="30.000000" height="30.000000" fill="#FFFFFF" fill-opacity="0"/>
	<path id="telegram" d="M15 30C6.71 30 0 23.28 0 15C0 6.71 6.71 0 15 0C23.28 0 30 6.71 30 15C30 23.28 23.28 30 15 30ZM15.64 11.25C14.3 11.81 11.62 12.97 7.59 14.72C6.93 14.98 6.59 15.24 6.56 15.48C6.51 15.91 7.03 16.07 7.75 16.3C7.85 16.33 7.95 16.36 8.05 16.39C8.76 16.62 9.71 16.89 10.2 16.9C10.65 16.91 11.15 16.73 11.7 16.35C15.46 13.81 17.4 12.52 17.52 12.5C17.61 12.48 17.73 12.45 17.81 12.52C17.89 12.6 17.88 12.73 17.87 12.77C17.82 12.99 15.76 14.91 14.69 15.91C14.35 16.22 14.12 16.43 14.07 16.49C13.96 16.6 13.85 16.7 13.74 16.81C13.09 17.44 12.6 17.91 13.77 18.68C14.34 19.06 14.79 19.36 15.24 19.67C15.73 20.01 16.22 20.34 16.85 20.76C17.02 20.86 17.17 20.97 17.32 21.08C17.89 21.49 18.41 21.85 19.04 21.79C19.41 21.76 19.79 21.41 19.99 20.38C20.44 17.93 21.34 12.63 21.55 10.45C21.57 10.26 21.55 10.01 21.53 9.9C21.51 9.8 21.47 9.64 21.33 9.53C21.17 9.4 20.91 9.37 20.8 9.37C20.28 9.38 19.48 9.66 15.64 11.25Z" fill="#333333" fill-opacity="1.000000" fill-rule="evenodd"/>
</svg>
