<svg width="46.000000" height="31.000000" viewBox="0 0 46 31" fill="none" xmlns="http://www.w3.org/2000/svg" xmlns:xlink="http://www.w3.org/1999/xlink">
	<desc>
			Created with Pixso.
	</desc>
	<defs/>
	<path id="Vector" d="M18 31L18 13L26.2 13C26.6 10.7 28 8 32 8C36.1 8 37.39 10.7 37.89 13L46 13L46 31L18 31ZM32 9C28.7 9 27.5 11.1 27.1 13L36.8 13C36.39 11.1 35.3 9 32 9ZM45 14L38 14L38 15L39 15L39 16L36 16L36 15L37 15L37 14L27 14L27 15L28 15L28 16L25 16L25 15L26 15L26 14L19 14L19 30L45 30L45 14Z" fill="#969696" fill-opacity="1.000000" fill-rule="evenodd"/>
	<path id="Vector" d="M23 13L23 6L17 6L17 7L18 7L18 8L15 8L15 7L16.1 7L16.1 6L7.89 6L7.89 7L9 7L9 8L6 8L6 7L6.89 7L6.89 6L1 6L1 30L20 30L20 31L0 31L0 5L7.1 5C7.39 2.7 8.5 0 12 0C15.5 0 16.6 2.7 16.89 5L24 5L24 13L23 13ZM12 1C9.3 1 8.3 3.1 8 5L16 5C15.7 3.1 14.7 1 12 1Z" fill="#969696" fill-opacity="1.000000" fill-rule="evenodd"/>
</svg>
