<svg width="53.000000" height="28.000000" viewBox="0 0 53 28" fill="none" xmlns="http://www.w3.org/2000/svg" xmlns:xlink="http://www.w3.org/1999/xlink">
	<desc>
			Created with Pixso.
	</desc>
	<defs>
		<clipPath id="clip114_106">
			<rect id="image (6) 1" width="53.000000" height="28.000000" fill="white" fill-opacity="0"/>
		</clipPath>
	</defs>
	<rect id="image (6) 1" width="53.000000" height="28.000000" fill="#FFFFFF" fill-opacity="0"/>
	<g clip-path="url(#clip114_106)">
		<path id="Vector" d="M53 21.5L53 24L51 26L48 26L48 24C48 23.29 48 19 43 19C38 19 38 23 38 23L21 23C21 23 20.5 19 16 19C11.4 19 11 23 11 23L5 23L5 18L6 17L8 0L33 0L33 3L38 3L41 4.5L46 10.39L53 14.29L52 21L53 21.5ZM45 11L40 5L38 4L32 4L32 1L9 1L7 17L7 18L6 19L6 22L10 22C10 22 11 18 16 18C21 18 22 22 22 22L37 22C37 22 37.59 18 43 18C50 18 49 25 49 25L51 25L52 24L52 22L51 21L51.8 14.79L45 11ZM31 14L31 13L32 6L38 6L39.4 7L43.5 12L43 14L31 14ZM39 8L37.7 7L33 7L32 13L42.2 13L42.3 12L39 8ZM0 0L6 0L6 1L0 1L0 0ZM5 6L0 6L0 5L5 5L5 6ZM4 11L0 11L0 10L4 10L4 11ZM3 16L0 16L0 15L3 15L3 16ZM11 25L6 25L6 24L11 24L11 25ZM16 20C18.2 20 20 21.79 20 24C20 26.2 18.2 28 16 28C13.8 28 12 26.2 12 24C12 21.79 13.8 20 16 20ZM16 27C17.7 27 19 25.7 19 24C19 22.29 17.7 21 16 21C14.3 21 13 22.29 13 24C13 25.7 14.3 27 16 27ZM38 25L21 25L21 24L38 24L38 25ZM43 20C45.2 20 47 21.79 47 24C47 26.2 45.2 28 43 28C40.8 28 39 26.2 39 24C39 21.79 40.8 20 43 20ZM43 27C44.7 27 46 25.7 46 24C46 22.29 44.7 21 43 21C41.3 21 40 22.29 40 24C40 25.7 41.3 27 43 27Z" fill="#969696" fill-opacity="1.000000" fill-rule="evenodd"/>
	</g>
</svg>
