<svg width="51.000000" height="31.000000" viewBox="0 0 51 31" fill="none" xmlns="http://www.w3.org/2000/svg" xmlns:xlink="http://www.w3.org/1999/xlink">
	<desc>
			Created with Pixso.
	</desc>
	<defs/>
	<path id="Vector" d="M25 10L25 6C25 6 28 6.29 28 3.39C28 2.1 26.9 1 25.5 1C23 1 23 4 23 4L22 4C22 4 22 0 25.5 0C29 0 29 3.39 29 3.39C29 7 26 7 26 7L26 10L25 10ZM34 28L31 28L31 21L34 21L35 23L35 27L34 28ZM34 23L33.5 22L32 22L32 27L34 27L34 23ZM26 21L27 21L27 27L29 27L29 26L30 26L30 28L26 28L26 21ZM21 21L25 21L25 28L21 28L21 21ZM22 27L24 27L24 22L22 22L22 27ZM16 26L17 26L17 27L19 27L19 25L16 25L16 21L20 21L20 23L19 23L19 22L17 22L17 24L20 24L20 28L16 28L16 26Z" fill="#969696" fill-opacity="1.000000" fill-rule="evenodd"/>
	<path id="Vector" d="M11 31L11 18L40 18L40 31L11 31ZM39 19L12 19L12 30L39 30L39 19ZM41 23L41 22L43 22L44 23L41 23ZM8 22L10 22L10 23L7 23L8 22Z" fill="#969696" fill-opacity="1.000000" fill-rule="evenodd"/>
	<path id="Vector" d="M49.5 24L46.7 24C46.7 24 42.8 19.6 39 17C35.4 14.6 30 13 30 13L21 13C21 13 15.6 14.6 12 17C8.19 19.6 4.19 24 4.19 24L1.5 24C1 24 0 23 0 22.5L0 21.5C0 20.7 0.8 20 1.5 20L4 20C4 20 6.19 17.6 8 16C9.5 14.6 11.4 13.2 13 12C17 9 21 9 21 9L30 9C30 9 34 9 38 12C39.5 13.1 41.8 14.79 43 16L47 20L49.5 20C50.2 20 51 20.7 51 21.5L51 22.5C51 23.2 50.2 24 49.5 24ZM50 21L46.7 21C46.7 21 44.6 18.89 43 17.2C41.8 16 38.9 14.1 37.5 13C34.2 10.39 30 10 30 10L21 10C21 10 16.7 10.39 13.5 13C12.1 14.1 9.4 16.1 8 17.2C6.67 18.4 5.4 19.67 4.19 21L1 21L1 23L4 23C4 23 8.3 18.5 12 16C15.8 13.5 21 12 21 12L30 12C30 12 35.59 13.7 39 16C43.1 18.7 47 23 47 23L50 23L50 21Z" fill="#969696" fill-opacity="1.000000" fill-rule="evenodd"/>
</svg>
